<svg width="22" height="22" viewBox="0 0 22 22" fill="none" xmlns="http://www.w3.org/2000/svg">
<path d="M6.15792 0.792731C7.42532 0.345462 7.95961 2.03516 8.02174 2.93591L5.13282 7.78132H4.01454C4.01454 7.78132 3.08263 9.73812 2.52348 9.55176C1.96434 9.3654 1.68477 8.99267 1.68477 8.34041C1.68477 7.81859 1.43626 7.31542 1.312 7.12905C0.814988 6.38361 -0.0905294 4.8042 0.00733471 4.70635C2.24391 2.47 4.57368 1.35182 6.15792 0.792731Z" fill="#AD7046"/>
<path d="M15.8422 0.792737C14.5748 0.345429 14.0405 2.03528 13.9784 2.93611L16.8673 7.78194H17.9855C17.9855 7.78194 18.9174 9.73892 19.4766 9.55254C20.0357 9.36616 20.3153 8.9934 20.3153 8.34108C20.3153 7.81922 20.5638 7.316 20.688 7.12962C21.185 6.3841 22.0905 4.80456 21.9927 4.7067C19.7561 2.47015 17.4264 1.35187 15.8422 0.792737Z" fill="#AD7046"/>
<path d="M15.749 2.02332L14.9103 3.60753L16.8673 6.77597C17.3332 6.80703 17.8923 6.58959 17.8923 6.58959C17.8923 6.58959 17.0394 5.34963 16.6809 4.63262C16.4013 4.07348 15.9354 2.73777 15.749 2.02332Z" fill="#99592E"/>
<path d="M6.05729 2.02332L6.896 3.60776L4.93902 6.77666C4.47307 6.80773 3.91394 6.59025 3.91394 6.59025C3.91394 6.59025 4.76689 5.35011 5.1254 4.63299C5.40497 4.07378 5.87091 2.73787 6.05729 2.02332Z" fill="#99592E"/>
<path d="M17.1424 8.08304C17.366 10.6923 15.4339 15.4055 14.4399 17.1224C13.4148 18.893 9.59403 20.6636 7.2643 16.5633C4.93457 12.463 4.655 8.3626 4.93457 6.77839C5.21414 5.19417 6.89154 2.49168 11.0851 2.58487C15.2786 2.67806 16.8628 4.82141 17.1424 8.08304Z" fill="#CC8F66"/>
<path d="M10.5399 9.85135L10.4467 3.51448C10.4453 3.42129 10.5399 3.14172 10.9126 3.14172C11.2109 3.14172 11.3475 3.45235 11.3786 3.60767C11.4407 5.37827 11.565 9.10584 11.565 9.85135C11.565 10.7832 11.7514 13.0198 12.1241 13.5789C12.5901 14.2778 14.8264 14.5149 14.6402 17.6793C14.4538 20.8477 11.7514 21.5 10.9126 21.5C10.0688 21.5 7.07903 20.3882 7.27827 17.3997C7.46464 14.604 8.76929 14.6972 9.70119 13.7653C10.4467 13.0198 10.571 10.8764 10.5399 9.85135Z" fill="#DCCFBC"/>
<path d="M10.9615 15.0798C9.24206 14.9844 8.65301 15.5968 8.57341 15.9149C8.57341 16.1535 8.81222 18.5396 11.0809 18.4203C12.8958 18.3249 13.2699 16.6308 13.2301 15.7956C13.1903 15.5968 12.6809 15.1752 10.9615 15.0798Z" fill="#040707" stroke="black"/>
</svg>
