<svg width="24" height="22" viewBox="0 0 24 22" fill="none" xmlns="http://www.w3.org/2000/svg">
<path d="M0.00819692 21.5091V13.4909C0.00819692 13.0982 0.343747 13 0.511522 13H3.19592C3.53147 13 3.67128 13.3273 3.69924 13.4909V18.4H20.3928V13.4091C20.3928 13.1473 20.7284 13.0273 20.8962 13H23.6644C23.9329 13 24 13.3818 24 13.5727V21.4273C24 21.8855 23.7204 22 23.5806 22H0.343747C0.00819693 22 -0.0197656 21.6727 0.00819692 21.5091Z" fill="#E6EAF2"/>
<path d="M14.6199 8.48577V15.0607C14.6199 15.6072 14.2245 16 13.9873 16H10.1919C9.71743 16 9.40114 15.3738 9.40114 15.0607V8.48577C8.29413 8.48577 6.15918 8.48576 5.8429 8.40037C5.61276 8.33824 5.21032 8.22959 5.05218 7.88804C4.92049 7.60362 5.05217 7.11954 5.28939 6.86337L11.3779 0.288409C11.7397 -0.102184 12.3717 -0.0900403 12.7222 0.288409L18.8107 6.86337C19.0479 7.11954 19.0479 7.63187 18.8898 7.97343C18.7633 8.24668 18.3363 8.48577 18.0991 8.48577H14.6199Z" fill="#E6EAF2"/>
</svg>
